# xmcd CD database file
#
# Track frame offsets:
#	150
#	18647
#	38319
#	57507
#	72409
#	105269
#	120013
#	130384
#	146722
#	170325
#	184811
#	197471
#	209352
#	226183
#	246092
#	264520
#
# Disc length: 3900 seconds
#
# Revision: 0
# Processed by: cddbd v1.5.2PL0 Copyright (c) Steve Scherf et al.
# Submitted via: CDex 1.51
#
DISCID=d70f3a10
DTITLE=Traditional Jazz Band - Standards
DYEAR=2003
DGENRE=Jazz
TTITLE0=It Had To Be You
TTITLE1=Misty
TTITLE2=Broadway
TTITLE3=Serenade In Blue
TTITLE4=That Old Feelling
TTITLE5=Trav' lin' light
TTITLE6=Blue Moon
TTITLE7=If I Had You
TTITLE8=My Blue Haven
TTITLE9=How Hight The Moon
TTITLE10=Laura
TTITLE11=All The Things You Are
TTITLE12=Tenderly
TTITLE13=Am I Blue
TTITLE14=George On My Mind
TTITLE15=All Of Me
EXTD=YEAR: 2003
EXTT0=
EXTT1=
EXTT2=
EXTT3=
EXTT4=
EXTT5=
EXTT6=
EXTT7=
EXTT8=
EXTT9=
EXTT10=
EXTT11=
EXTT12=
EXTT13=
EXTT14=
EXTT15=
PLAYORDER=
